<svg xmlns="http://www.w3.org/2000/svg" preserveAspectRatio="none" viewBox="0 0 1920 170"><defs><linearGradient id="a" x1="49.253%" x2="49.253%" y1="85.804%" y2="43.074%"><stop offset="0%" stop-color="#FFF"/><stop offset="100%" stop-color="#FFF"/></linearGradient></defs><g fill="none"><path fill="url(#a)" d="M1920 4.719v69.5q-543.945 90.054-990.5-13.5Q384-65.781 0 170L1 4.719z" transform="rotate(180 960.5 87.36)"/><path fill="#FFF" fill-opacity=".3" d="M1 170V99Q404.55-6.66 1004.5 111C1494 207 1921 4.719 1921 4.719L1920 170z"/><path fill="#FFF" fill-opacity=".3" d="M1 170.75V99Q559.172-43.176 997.5 71.5 1546 215 1921 4.719l-1 166.031z"/><path fill="#FFF" fill-opacity=".35" d="M1 170v-67Q600-53.5 1032.5 50c432.5 103.5 754 19.219 888.5-45.281l-1 166.031z"/></g></svg>